<?xml version="1.0" encoding="UTF-8" standalone="no"?><!DOCTYPE svg PUBLIC "-//W3C//DTD SVG 1.1//EN" "http://www.w3.org/Graphics/SVG/1.1/DTD/svg11.dtd"><svg width="100%" height="100%" viewBox="0 0 32 32" version="1.1" xmlns="http://www.w3.org/2000/svg" xmlns:xlink="http://www.w3.org/1999/xlink" xml:space="preserve" xmlns:serif="http://www.serif.com/" style="fill-rule:evenodd;clip-rule:evenodd;stroke-linejoin:round;stroke-miterlimit:1.41421;"><g><path d="M12.641,10.786c0.108,-0.343 0.053,-0.717 -0.149,-1.015c-0.202,-0.298 -0.529,-0.488 -0.888,-0.516c-1.882,-0.125 -5.144,-0.082 -7.016,1.816c-2.37,2.402 -2.489,4.309 -2.507,5.951c-0.027,2.487 1.096,3.794 2.276,4.709c1.391,1.079 4.884,0.932 4.884,0.932l1.16,-2.436c0,0 -1.595,0.152 -3.082,-0.051c-1.71,-0.234 -2.035,-1.692 -2.177,-2.661c-0.228,-1.549 -0.033,-2.358 0.487,-3.41c1.233,-2.491 3.442,-2.751 4.322,-2.695c1.799,0.113 2.371,0.398 2.371,0.398c0,0 0.154,-0.492 0.319,-1.022Z" style="fill:#fff;"/><path d="M16.234,9.599l3.512,0.029l1.535,12.981l-2.957,-0.027l-0.788,-10.836l-4.724,10.924l-3.016,-0.047l6.438,-13.024Z" style="fill:#fff;"/><path d="M12.665,19.56c0,0 1.077,-0.152 1.562,0c0.484,0.153 0.75,0.544 0.75,0.544c0,0 1.288,-2.107 4.047,-2.107c2.759,0 4.247,1.831 4.247,1.831c0,0 -2.254,-2.408 -3.929,-2.495c-1.654,-0.087 -2.112,-0.132 -3.891,0.306c-1.78,0.438 -2.786,1.921 -2.786,1.921Z" style="fill:#fff;"/><path d="M29.919,9.932l-0.933,2.195c0,0 -1.2,-0.359 -2.329,-0.369c-1.129,-0.01 -1.881,0.005 -2.07,1.187c-0.305,1.915 4.24,1.523 4.539,5.538c0.152,2.046 -2.15,4.197 -3.501,4.265c-1.351,0.068 -4.023,-0.069 -4.023,-0.069l-0.089,-2.509c0,0 2.046,0.287 3.009,0.303c1.217,0.019 2.756,-1.949 -0.183,-3.414c-2.101,-1.047 -2.651,-2.16 -2.707,-3.455c-0.055,-1.295 0.4,-2.304 1.318,-3.074c0.92,-0.772 2.563,-1.301 3.877,-1.268c1.314,0.032 3.092,0.67 3.092,0.67Z" style="fill:#fff;"/></g></svg>